<?xml version="1.0" encoding="UTF-8" standalone="no"?><!DOCTYPE svg PUBLIC "-//W3C//DTD SVG 1.1//EN" "http://www.w3.org/Graphics/SVG/1.1/DTD/svg11.dtd"><svg width="100%" height="100%" viewBox="0 0 1563 938" version="1.1" xmlns="http://www.w3.org/2000/svg" xmlns:xlink="http://www.w3.org/1999/xlink" xml:space="preserve" xmlns:serif="http://www.serif.com/" style="fill-rule:evenodd;clip-rule:evenodd;stroke-linejoin:round;stroke-miterlimit:2;"><rect id="Wordmark-250X150px-RED" serif:id="Wordmark 250X150px RED" x="-0" y="0" width="1562.5" height="937.5" style="fill:none;"/><clipPath id="_clip1"><rect x="-0" y="0" width="1562.5" height="937.5"/></clipPath><g clip-path="url(#_clip1)"><g id="Layer1"></g><g><path d="M391.25,323.75l-8.75,64.167l-65.833,-0l-0,225.833l-85.834,-0l0,-225.833l-70.416,-0l-0,-64.167l230.833,-0Z" style="fill:#e85a4f;fill-rule:nonzero;"/><path d="M508.75,510.417l-15.833,-0l-0,103.333l-85.834,-0l0,-290l106.25,-0c41.945,-0 73.195,7.431 93.75,22.292c20.556,14.861 30.834,38.125 30.834,69.791c-0,18.056 -4.028,33.056 -12.084,45c-8.055,11.945 -21.111,23.195 -39.166,33.75l70.833,119.167l-95,-0l-53.75,-103.333Zm-15.833,-57.5l22.5,-0c11.666,-0 20.416,-3.056 26.25,-9.167c5.833,-6.111 8.75,-15.417 8.75,-27.917c-0,-22.222 -13.056,-33.333 -39.167,-33.333l-18.333,-0l-0,70.417Z" style="fill:#e85a4f;fill-rule:nonzero;"/><path d="M819.167,613.75l-11.25,-56.25l-68.75,-0l-10.834,56.25l-89.583,-0l84.583,-290l102.5,-0l84.167,290l-90.833,-0Zm-67.917,-116.25l44.583,-0l-22.5,-113.75l-22.083,113.75Z" style="fill:#e85a4f;fill-rule:nonzero;"/><path d="M1142.92,323.75l-73.334,290l-110.833,-0l-77.917,-290l90.417,-0l44.167,230.417l39.583,-230.417l87.917,-0Z" style="fill:#e85a4f;fill-rule:nonzero;"/><path d="M1340.83,323.75l-8.75,59.583l-95.833,0l-0,54.167l84.167,-0l-0,57.917l-84.167,-0l-0,58.333l102.5,-0l-0,60l-188.333,-0l-0,-290l190.416,-0Z" style="fill:#e85a4f;fill-rule:nonzero;"/><path d="M1452.92,323.75l-0,224.167l109.583,-0l-8.75,65.833l-186.667,-0l0,-290l85.834,-0Z" style="fill:#e85a4f;fill-rule:nonzero;"/><path d="M147.733,-0l-5.6,41.067l-42.133,-0l-0,144.533l-54.933,-0l-0,-144.533l-45.067,-0l-0,-41.067l147.733,-0Z" style="fill:#e85a4f;fill-rule:nonzero;"/><path d="M255.2,185.6l-0,-74.933l-42.4,-0l-0,74.933l-54.933,-0l-0,-185.6l54.933,-0l-0,68.533l42.4,0l-0,-68.533l54.933,-0l0,185.6l-54.933,-0Z" style="fill:#e85a4f;fill-rule:nonzero;"/><path d="M454.933,-0l-5.6,38.133l-61.333,0l-0,34.667l53.867,-0l-0,37.067l-53.867,-0l-0,37.333l65.6,-0l-0,38.4l-120.533,-0l-0,-185.6l121.866,-0Z" style="fill:#e85a4f;fill-rule:nonzero;"/><path d="M109.067,833.767c12.266,2.489 22.222,7.066 29.866,13.733c7.645,6.667 11.467,16.578 11.467,29.733c-0,20.445 -7.422,34.711 -22.267,42.8c-14.844,8.089 -35.866,12.134 -63.066,12.134l-65.067,-0l-0,-185.6l57.867,-0c27.555,-0 48.577,3.689 63.066,11.066c14.489,7.378 21.734,19.689 21.734,36.934c-0,11.022 -3.2,19.689 -9.6,26c-6.4,6.311 -14.4,10.711 -24,13.2Zm-54.134,-49.6l0,34.133l9.334,-0c8.355,-0 14.222,-1.378 17.6,-4.133c3.377,-2.756 5.066,-7.423 5.066,-14c0,-5.511 -1.822,-9.556 -5.466,-12.134c-3.645,-2.577 -9.823,-3.866 -18.534,-3.866l-8,-0Zm10.667,109.333c9.244,-0 16.267,-1.422 21.067,-4.267c4.8,-2.844 7.2,-8.089 7.2,-15.733c-0,-7.111 -2.178,-12.311 -6.534,-15.6c-4.355,-3.289 -10.889,-4.933 -19.6,-4.933l-12.8,-0l0,40.533l10.667,-0Z" style="fill:#e85a4f;fill-rule:nonzero;"/><path d="M220.8,746.567l-0,143.466l70.133,0l-5.6,42.134l-119.466,-0l-0,-185.6l54.933,-0Z" style="fill:#e85a4f;fill-rule:nonzero;"/><path d="M374.933,741.233c27.734,0 49.111,8.578 64.134,25.734c15.022,17.155 22.533,41.2 22.533,72.133c-0,20.089 -3.378,37.511 -10.133,52.267c-6.756,14.755 -16.623,26.133 -29.6,34.133c-12.978,8 -28.623,12 -46.934,12c-27.733,-0 -49.111,-8.667 -64.133,-26c-15.022,-17.333 -22.533,-41.467 -22.533,-72.4c-0,-20.089 3.377,-37.467 10.133,-52.133c6.756,-14.667 16.622,-25.956 29.6,-33.867c12.978,-7.911 28.622,-11.867 46.933,-11.867Zm0,38.934c-10.489,-0 -18.044,4.489 -22.666,13.466c-4.623,8.978 -6.934,24.134 -6.934,45.467c0,21.333 2.311,36.578 6.934,45.733c4.622,9.156 12.177,13.734 22.666,13.734c10.667,-0 18.267,-4.534 22.8,-13.6c4.534,-9.067 6.8,-24.356 6.8,-45.867c0,-21.333 -2.311,-36.489 -6.933,-45.467c-4.622,-8.977 -12.178,-13.466 -22.667,-13.466Z" style="fill:#e85a4f;fill-rule:nonzero;"/><path d="M565.867,741.233c13.333,0 25.555,2.223 36.666,6.667c11.111,4.444 20.845,10.311 29.2,17.6l-26.666,27.733c-6.578,-4.8 -12.534,-8.266 -17.867,-10.4c-5.333,-2.133 -11.378,-3.2 -18.133,-3.2c-12.978,0 -22.934,4.934 -29.867,14.8c-6.933,9.867 -10.4,24.845 -10.4,44.934c-0,15.111 1.067,26.977 3.2,35.6c2.133,8.622 5.467,14.711 10,18.266c4.533,3.556 10.533,5.334 18,5.334c6.578,-0 12.889,-1.511 18.933,-4.534l0,-33.866l-18.666,-0l-5.067,-37.067l76.533,-0l0,93.067c-9.777,6.755 -20.977,12 -33.6,15.733c-12.622,3.733 -24.8,5.6 -36.533,5.6c-30.4,-0 -52.889,-8.311 -67.467,-24.933c-14.577,-16.623 -21.866,-41.111 -21.866,-73.467c-0,-20.444 4,-38.044 12,-52.8c8,-14.756 19.111,-25.956 33.333,-33.6c14.222,-7.644 30.311,-11.467 48.267,-11.467Z" style="fill:#e85a4f;fill-rule:nonzero;"/></g></g></svg>