<?xml version="1.0" encoding="UTF-8" standalone="no"?>
<!DOCTYPE svg PUBLIC "-//W3C//DTD SVG 1.1//EN" "http://www.w3.org/Graphics/SVG/1.1/DTD/svg11.dtd">
<svg width="100%" height="100%" viewBox="0 0 64 64" version="1.1" xmlns="http://www.w3.org/2000/svg" xmlns:xlink="http://www.w3.org/1999/xlink" xml:space="preserve" xmlns:serif="http://www.serif.com/" style="fill-rule:evenodd;clip-rule:evenodd;stroke-linecap:round;stroke-linejoin:round;stroke-miterlimit:1.5;">
    <g transform="matrix(1,0,0,1,-14.1101,3.98986e-17)">
        <g id="Fav-Icon-64x64-Dark-Mode" serif:id="Fav Icon 64x64 Dark Mode" transform="matrix(0.250321,0,0,0.250321,13.8633,-0.0102828)">
            <rect x="0.986" y="0.041" width="255.671" height="255.671" style="fill:none;"/>
            <g transform="matrix(2.28464,0,0,2.28464,-489.452,-861.336)">
                <g id="Layer1">
                    <g>
                        <g transform="matrix(0.422075,0.156207,-0.156207,0.422075,213.846,313.591)">
                            <circle cx="206.223" cy="206.552" r="84.632" style="fill:white;"/>
                        </g>
                        <g transform="matrix(0.422075,0.156207,-0.156207,0.422075,236.304,359.436)">
                            <path d="M24.318,134.121C19.413,139.424 4.577,155.582 17.248,161.057C19.372,161.975 21.677,162.622 23.99,162.711C27.882,162.862 31.79,162.381 35.636,161.768C62.586,157.473 90.754,150.25 116.188,140.719" style="fill:none;stroke:rgb(190,49,68);stroke-width:10.36px;"/>
                        </g>
                        <g transform="matrix(0.41346,0.17776,-0.17776,0.41346,240.123,356.491)">
                            <path d="M206.782,108.187C184.474,117.216 182.117,118.995 159.384,126.891C153.356,128.984 146.047,130.177 139.666,130.177C131.284,130.177 113.047,108.488 113.047,108.488C113.047,108.488 121.223,106.187 124.549,106.187C131.813,106.187 140.81,111.504 148.211,110.46C153.751,109.677 164.97,105.202 164.97,105.202L137.037,81.212C137.037,81.212 153.3,79.714 159.278,81.093C178.289,85.481 173.317,94.116 192.279,92.43C207.749,91.055 222.3,78.955 238.911,83.841C247.187,86.275 245.251,90.05 241.212,93.042C237.393,95.871 211.225,106.501 206.782,108.187Z" style="fill:rgb(240,89,65);stroke:rgb(240,89,65);stroke-width:2.59px;"/>
                        </g>
                    </g>
                </g>
            </g>
        </g>
    </g>
</svg>
